<?xml version="1.0" encoding="utf-8"?>
<!-- Generator: Adobe Illustrator 27.3.1, SVG Export Plug-In . SVG Version: 6.00 Build 0)  -->
<!DOCTYPE svg PUBLIC "-//W3C//DTD SVG 1.1//EN" "http://www.w3.org/Graphics/SVG/1.1/DTD/svg11.dtd" [
	<!ENTITY ns_extend "http://ns.adobe.com/Extensibility/1.0/">
	<!ENTITY ns_ai "http://ns.adobe.com/AdobeIllustrator/10.0/">
	<!ENTITY ns_graphs "http://ns.adobe.com/Graphs/1.0/">
	<!ENTITY ns_vars "http://ns.adobe.com/Variables/1.0/">
	<!ENTITY ns_imrep "http://ns.adobe.com/ImageReplacement/1.0/">
	<!ENTITY ns_sfw "http://ns.adobe.com/SaveForWeb/1.0/">
	<!ENTITY ns_custom "http://ns.adobe.com/GenericCustomNamespace/1.0/">
	<!ENTITY ns_adobe_xpath "http://ns.adobe.com/XPath/1.0/">
]>
<svg version="1.1" xmlns:x="&ns_extend;" xmlns:i="&ns_ai;" xmlns:graph="&ns_graphs;"
	 xmlns="http://www.w3.org/2000/svg" xmlns:xlink="http://www.w3.org/1999/xlink" x="0px" y="0px" viewBox="0 0 31.4 30.9"
	 style="enable-background:new 0 0 31.4 30.9;" xml:space="preserve">
<style type="text/css">
	.st0{fill:url(#SVGID_1_);}
	.st1{display:none;}
	.st2{display:inline;fill:none;stroke:url(#SVGID_00000058550156170249725060000006962753603030648485_);stroke-width:10;}
</style>
<metadata>
	<sfw  xmlns="&ns_sfw;">
		<slices></slices>
		<sliceSourceBounds  bottomLeftOrigin="true" height="496.3" width="439.2" x="-203.1" y="-232.8"></sliceSourceBounds>
	</sfw>
</metadata>
<g id="a">
	<g id="b">
		<g id="c">
			<g id="d">
				<g id="e">
					<linearGradient id="SVGID_1_" gradientUnits="userSpaceOnUse" x1="0.208" y1="15.43" x2="31.1906" y2="15.43">
						<stop  offset="8.000000e-02" style="stop-color:#7B5CA7"/>
						<stop  offset="0.3" style="stop-color:#745FA9"/>
						<stop  offset="0.5" style="stop-color:#5697D1"/>
						<stop  offset="0.6" style="stop-color:#42B4CA"/>
						<stop  offset="0.72" style="stop-color:#5EC3AC"/>
						<stop  offset="0.97" style="stop-color:#70C388"/>
					</linearGradient>
					<path class="st0" d="M26.5,5.7c-2-0.9-4.2-1.6-6.4-2c-0.3,0.5-0.6,1.1-0.8,1.7c-2.4-0.3-4.7-0.3-7.1,0
						c-0.2-0.6-0.5-1.1-0.8-1.7c-2.2,0.4-4.4,1-6.4,2c-4,6-5.1,11.8-4.6,17.6l0,0c2.4,1.8,5,3.1,7.8,3.9c0.6-0.9,1.2-1.8,1.7-2.7
						c-0.9-0.3-1.8-0.8-2.6-1.3c0.2-0.2,0.4-0.3,0.7-0.5c5,2.3,10.7,2.3,15.7,0c0.2,0.2,0.4,0.3,0.6,0.5c-0.8,0.5-1.7,0.9-2.6,1.3
						c0.5,1,1,1.9,1.7,2.7c2.8-0.9,5.5-2.2,7.8-3.9l0,0C31.7,16.6,30,10.8,26.5,5.7L26.5,5.7L26.5,5.7z M10.6,19.7
						c-1.5,0-2.8-1.4-2.8-3.1s1.2-3.1,2.8-3.1s2.8,1.4,2.8,3.1S12.1,19.7,10.6,19.7L10.6,19.7L10.6,19.7z M20.8,19.7
						c-1.5,0-2.8-1.4-2.8-3.1s1.2-3.1,2.8-3.1s2.8,1.4,2.8,3.1S22.4,19.7,20.8,19.7L20.8,19.7z"/>
				</g>
			</g>
		</g>
	</g>
</g>
<g id="Layer_2" class="st1">
	
		<linearGradient id="SVGID_00000181052970787512375390000011032988193675384486_" gradientUnits="userSpaceOnUse" x1="-226.4596" y1="11.6997" x2="269.859" y2="11.6997" gradientTransform="matrix(6.123234e-17 1 -1 6.123234e-17 28.1997 -6.1997)">
		<stop  offset="8.000000e-02" style="stop-color:#7B5CA7"/>
		<stop  offset="0.3" style="stop-color:#745FA9"/>
		<stop  offset="0.5" style="stop-color:#5697D1"/>
		<stop  offset="0.6" style="stop-color:#42B4CA"/>
		<stop  offset="0.72" style="stop-color:#5EC3AC"/>
		<stop  offset="0.97" style="stop-color:#70C388"/>
	</linearGradient>
	
		<path style="display:inline;fill:none;stroke:url(#SVGID_00000181052970787512375390000011032988193675384486_);stroke-width:10;" d="
		M231.1,122.1l0-213.2c0-10.7-5.7-20.6-15-26L31.5-223.6c-9.3-5.4-20.7-5.4-30,0l-184.6,106.6c-9.3,5.4-15,15.3-15,26l0,213.2
		c0,10.7,5.7,20.6,15,26L1.5,254.6c9.3,5.4,20.7,5.4,30,0l184.6-106.6C225.4,142.7,231.1,132.8,231.1,122.1z"/>
</g>
</svg>
