<?xml version="1.0" encoding="UTF-8"?><svg id="a" xmlns="http://www.w3.org/2000/svg" xmlns:xlink="http://www.w3.org/1999/xlink" viewBox="0 0 31.39 30.87"><defs><linearGradient id="b" x1="290" y1="-364.56" x2="321.39" y2="-364.56" gradientTransform="translate(-290 -349.13) scale(1 -1)" gradientUnits="userSpaceOnUse"><stop offset=".08" stop-color="#9945ff"/><stop offset=".3" stop-color="#8752f3"/><stop offset=".5" stop-color="#5497d5"/><stop offset=".6" stop-color="#43b4ca"/><stop offset=".72" stop-color="#28e0b9"/><stop offset=".97" stop-color="#19fb9b"/></linearGradient></defs><path d="m15.71,0C7.02,0,0,7.07,0,15.83c0,7,4.5,12.92,10.74,15.01.78.16,1.07-.34,1.07-.76,0-.37-.03-1.62-.03-2.94-4.37.94-5.28-1.89-5.28-1.89-.7-1.83-1.74-2.31-1.74-2.31-1.43-.97.1-.97.1-.97,1.59.11,2.42,1.62,2.42,1.62,1.41,2.41,3.67,1.73,4.58,1.31.13-1.02.55-1.73.99-2.12-3.49-.37-7.15-1.73-7.15-7.81,0-1.73.62-3.14,1.61-4.24-.16-.39-.7-2.02.16-4.19,0,0,1.32-.42,4.32,1.62,1.28-.35,2.6-.52,3.93-.52s2.68.18,3.93.52c2.99-2.05,4.32-1.62,4.32-1.62.86,2.17.31,3.8.16,4.19,1.01,1.1,1.61,2.51,1.61,4.24,0,6.08-3.67,7.42-7.18,7.81.57.5,1.07,1.44,1.07,2.94,0,2.12-.03,3.83-.03,4.35,0,.42.29.92,1.07.76,6.24-2.1,10.74-8.02,10.74-15.01.03-8.75-7.02-15.83-15.68-15.83h0Z" fill="url(#b)" fill-rule="evenodd"/></svg>