<?xml version="1.0" encoding="UTF-8"?><svg id="a" xmlns="http://www.w3.org/2000/svg" xmlns:xlink="http://www.w3.org/1999/xlink" viewBox="0 0 439.2 496.32"><defs><linearGradient id="b" x1="131.35" y1="247.91" x2="307.35" y2="247.91" gradientUnits="userSpaceOnUse"><stop offset=".08" stop-color="#7b5ca7"/><stop offset=".3" stop-color="#745fa9"/><stop offset=".5" stop-color="#5697d1"/><stop offset=".6" stop-color="#42b4ca"/><stop offset=".72" stop-color="#5ec3ac"/><stop offset=".97" stop-color="#70c388"/></linearGradient></defs><path d="m303.67,205.27c-2.02-7.62-7.99-13.62-15.56-15.66-13.73-3.7-68.76-3.7-68.76-3.7,0,0-55.04,0-68.76,3.7-7.57,2.04-13.54,8.04-15.56,15.66-3.68,13.81-3.68,42.64-3.68,42.64,0,0,0,28.82,3.68,42.64,2.02,7.62,7.99,13.62,15.56,15.66,13.73,3.7,68.76,3.7,68.76,3.7,0,0,55.04,0,68.76-3.7,7.57-2.04,13.54-8.04,15.56-15.66,3.68-13.81,3.68-42.64,3.68-42.64,0,0,0-28.82-3.68-42.64Z" fill="url(#b)"/><polygon points="201.35 274.08 201.35 221.74 247.35 247.91 201.35 274.08" fill="#fff"/></svg>